<svg width="24" height="24" viewBox="0 0 24 24" fill="none" xmlns="http://www.w3.org/2000/svg">
<g opacity="0.5">
<mask id="mask0_116_1160" style="mask-type:alpha" maskUnits="userSpaceOnUse" x="0" y="0" width="24" height="24">
<rect width="24" height="24" fill="#D9D9D9"/>
</mask>
<g mask="url(#mask0_116_1160)">
<path d="M8.25 17.75H15.75V16.25H8.25V17.75ZM8.25 13.75H15.75V12.25H8.25V13.75ZM6.30775 21.5C5.80258 21.5 5.375 21.325 5.025 20.975C4.675 20.625 4.5 20.1974 4.5 19.6923V4.30775C4.5 3.80258 4.675 3.375 5.025 3.025C5.375 2.675 5.80258 2.5 6.30775 2.5H14.25L19.5 7.75V19.6923C19.5 20.1974 19.325 20.625 18.975 20.975C18.625 21.325 18.1974 21.5 17.6923 21.5H6.30775ZM13.5 8.5H18L13.5 4V8.5Z" fill="url(#paint0_linear_116_1160)"/>
</g>
</g>
<defs>
<linearGradient id="paint0_linear_116_1160" x1="4.5" y1="2.5" x2="20.1295" y2="3.03277" gradientUnits="userSpaceOnUse">
<stop stop-color="#EBEBEB" stop-opacity="0.7"/>
<stop offset="1" stop-color="#EBEBEB"/>
</linearGradient>
</defs>
</svg>
