<svg width="24" height="24" viewBox="0 0 24 24" fill="none" xmlns="http://www.w3.org/2000/svg">
<g opacity="0.5">
<mask id="mask0_116_1189" style="mask-type:alpha" maskUnits="userSpaceOnUse" x="0" y="0" width="24" height="24">
<rect width="24" height="24" fill="#D9D9D9"/>
</mask>
<g mask="url(#mask0_116_1189)">
<path d="M18.877 8.82301L22.1345 12.0808L21.0807 13.1345L17.823 9.87702C17.4987 10.109 17.1381 10.2901 16.7413 10.4203C16.3446 10.5503 15.9308 10.6153 15.5 10.6153C14.3525 10.6153 13.3798 10.2163 12.5817 9.41826C11.7837 8.62027 11.3848 7.64752 11.3848 6.50002C11.3848 5.35252 11.7837 4.37977 12.5817 3.58177C13.3798 2.78377 14.3525 2.38477 15.5 2.38477C16.6475 2.38477 17.6202 2.78377 18.4183 3.58177C19.2162 4.37977 19.6152 5.35252 19.6152 6.50002C19.6152 6.95002 19.547 7.3686 19.4105 7.75576C19.274 8.14293 19.0962 8.49868 18.877 8.82301ZM15.5 9.11552C16.232 9.11552 16.8509 8.8626 17.3568 8.35677C17.8626 7.85093 18.1155 7.23202 18.1155 6.50002C18.1155 5.76802 17.8626 5.1491 17.3568 4.64326C16.8509 4.13743 16.232 3.88452 15.5 3.88452C14.768 3.88452 14.1491 4.13743 13.6432 4.64326C13.1374 5.1491 12.8845 5.76802 12.8845 6.50002C12.8845 7.23202 13.1374 7.85093 13.6432 8.35677C14.1491 8.8626 14.768 9.11552 15.5 9.11552ZM4.30775 21.5C3.80258 21.5 3.375 21.325 3.025 20.975C2.675 20.625 2.5 20.1974 2.5 19.6923V6.30777C2.5 5.8026 2.675 5.37502 3.025 5.02502C3.375 4.67502 3.80258 4.50002 4.30775 4.50002H9.75C9.6115 4.82702 9.52017 5.1761 9.476 5.54727C9.43183 5.91827 9.40975 6.27235 9.40975 6.60952C9.40975 8.31085 10.0065 9.73301 11.2 10.876C12.3937 12.0188 13.8353 12.5903 15.525 12.5903C15.8288 12.5903 16.1343 12.5694 16.4413 12.5278C16.7484 12.4861 17.0623 12.4185 17.3828 12.325L19.5 14.3845V19.6923C19.5 20.1974 19.325 20.625 18.975 20.975C18.625 21.325 18.1974 21.5 17.6923 21.5H4.30775Z" fill="url(#paint0_linear_116_1189)"/>
</g>
</g>
<defs>
<linearGradient id="paint0_linear_116_1189" x1="2.5" y1="2.38477" x2="22.9421" y2="3.29138" gradientUnits="userSpaceOnUse">
<stop stop-color="#EBEBEB" stop-opacity="0.7"/>
<stop offset="1" stop-color="#EBEBEB"/>
</linearGradient>
</defs>
</svg>
