<svg width="173" height="27" viewBox="0 0 173 27" fill="none" xmlns="http://www.w3.org/2000/svg">
<g opacity="0.5">
<mask id="mask0_100_595" style="mask-type:alpha" maskUnits="userSpaceOnUse" x="0" y="2" width="22" height="23">
<rect y="2.5" width="22" height="22" fill="#D9D9D9"/>
</mask>
<g mask="url(#mask0_100_595)">
<path d="M5.7821 22.2083C5.31903 22.2083 4.92708 22.0479 4.60625 21.727C4.28542 21.4062 4.125 21.0143 4.125 20.5512V6.44873C4.125 5.98566 4.28542 5.59371 4.60625 5.27288C4.92708 4.95204 5.31903 4.79163 5.7821 4.79163H13.0625L17.875 9.60413V12.5393C17.5471 12.598 17.2407 12.7054 16.9556 12.8617C16.6707 13.018 16.4071 13.2172 16.165 13.4594L10.665 18.9365V22.2083H5.7821ZM12.6748 22.2083V19.7862L17.6511 14.8326C17.7651 14.7245 17.8884 14.6459 18.0212 14.5965C18.1541 14.5472 18.287 14.5225 18.4197 14.5225C18.562 14.5225 18.7009 14.5495 18.8366 14.6034C18.9723 14.6575 19.0942 14.7386 19.2023 14.8468L20.0503 15.7034C20.1489 15.8175 20.2253 15.941 20.2794 16.0737C20.3335 16.2065 20.3605 16.3393 20.3605 16.472C20.3605 16.6048 20.3359 16.7399 20.2865 16.8774C20.2372 17.0149 20.1584 17.1407 20.0503 17.2546L15.0968 22.2083H12.6748ZM18.4197 17.3571L19.2676 16.472L18.4197 15.6154L17.5489 16.4862L18.4197 17.3571ZM12.375 10.2916H16.5L12.375 6.16663V10.2916Z" fill="url(#paint0_linear_100_595)"/>
</g>
</g>
<path d="M34.9492 6.9043H37.8584L41.7432 16.3877H41.8926L45.7861 6.9043H48.7305V20H46.4014V11H46.2959L42.6572 19.9561H40.9521L37.3574 10.9824H37.2344V20H34.9492V6.9043ZM55.252 20.2021C54.2324 20.2021 53.3477 20.0439 52.5977 19.7275C51.8477 19.4111 51.2617 18.9512 50.8398 18.3477C50.418 17.7383 50.1895 17 50.1543 16.1328H52.4922C52.5273 16.5898 52.668 16.9707 52.9141 17.2754C53.1602 17.5742 53.4824 17.7998 53.8809 17.9521C54.2852 18.1045 54.7334 18.1807 55.2256 18.1807C55.7412 18.1807 56.1953 18.1016 56.5879 17.9434C56.9805 17.7852 57.2881 17.5654 57.5107 17.2842C57.7334 17.0029 57.8447 16.6748 57.8447 16.2998C57.8447 15.96 57.7451 15.6816 57.5459 15.4648C57.3467 15.2422 57.0713 15.0547 56.7197 14.9023C56.3682 14.75 55.9551 14.6152 55.4805 14.498L53.9951 14.1113C52.917 13.8359 52.0674 13.417 51.4463 12.8545C50.8252 12.2861 50.5146 11.5303 50.5146 10.5869C50.5146 9.81348 50.7227 9.13965 51.1387 8.56543C51.5547 7.98535 52.123 7.53418 52.8438 7.21191C53.5703 6.88965 54.3906 6.72852 55.3047 6.72852C56.2363 6.72852 57.0537 6.88965 57.7568 7.21191C58.46 7.53418 59.0107 7.97949 59.4092 8.54785C59.8076 9.11621 60.0156 9.76953 60.0332 10.5078H57.7393C57.6807 9.94531 57.4316 9.51172 56.9922 9.20703C56.5586 8.89648 55.9873 8.74121 55.2783 8.74121C54.7861 8.74121 54.3613 8.81445 54.0039 8.96094C53.6523 9.10742 53.3828 9.30957 53.1953 9.56738C53.0078 9.8252 52.9141 10.1182 52.9141 10.4463C52.9141 10.8096 53.0225 11.1084 53.2393 11.3428C53.4619 11.5713 53.7432 11.7559 54.083 11.8965C54.4287 12.0371 54.7803 12.1543 55.1377 12.248L56.3594 12.5557C56.8516 12.6729 57.3262 12.8311 57.7832 13.0303C58.2402 13.2236 58.6504 13.4697 59.0137 13.7686C59.3828 14.0615 59.6729 14.4189 59.8838 14.8408C60.1006 15.2627 60.209 15.7578 60.209 16.3262C60.209 17.0879 60.0127 17.7617 59.6201 18.3477C59.2275 18.9277 58.6621 19.3818 57.9238 19.71C57.1855 20.0381 56.2949 20.2021 55.252 20.2021ZM68.207 20L64.5156 6.9043H67.0645L69.4287 16.5283H69.543L72.0654 6.9043H74.3945L76.8994 16.5371H77.0312L79.3779 6.9043H81.9443L78.2441 20H75.8975L73.2783 10.8242H73.1729L70.5625 20H68.207ZM86.2246 20.1934C85.2637 20.1934 84.4316 19.9824 83.7285 19.5605C83.0254 19.1387 82.4805 18.5469 82.0938 17.7852C81.7129 17.0234 81.5225 16.1387 81.5225 15.1309C81.5225 14.1172 81.7129 13.2295 82.0938 12.4678C82.4805 11.7002 83.0254 11.1055 83.7285 10.6836C84.4316 10.2617 85.2637 10.0508 86.2246 10.0508C87.1855 10.0508 88.0176 10.2617 88.7207 10.6836C89.4238 11.1055 89.9688 11.7002 90.3555 12.4678C90.7422 13.2295 90.9355 14.1172 90.9355 15.1309C90.9355 16.1387 90.7422 17.0234 90.3555 17.7852C89.9688 18.5469 89.4238 19.1387 88.7207 19.5605C88.0176 19.9824 87.1855 20.1934 86.2246 20.1934ZM86.2246 18.3301C86.7578 18.3301 87.1973 18.1895 87.543 17.9082C87.8887 17.6211 88.1465 17.2344 88.3164 16.748C88.4922 16.2617 88.5801 15.7227 88.5801 15.1309C88.5801 14.5273 88.4922 13.9824 88.3164 13.4961C88.1465 13.0098 87.8887 12.626 87.543 12.3447C87.1973 12.0576 86.7578 11.9141 86.2246 11.9141C85.7031 11.9141 85.2666 12.0576 84.915 12.3447C84.5635 12.626 84.2998 13.0098 84.124 13.4961C83.9541 13.9824 83.8691 14.5273 83.8691 15.1309C83.8691 15.7227 83.9541 16.2617 84.124 16.748C84.2998 17.2344 84.5635 17.6211 84.915 17.9082C85.2666 18.1895 85.7031 18.3301 86.2246 18.3301ZM92.21 20V10.1738H94.4512V11.8262H94.5566C94.7324 11.252 95.04 10.8125 95.4795 10.5078C95.9189 10.1973 96.4199 10.042 96.9824 10.042C97.1055 10.042 97.2461 10.0479 97.4043 10.0596C97.5684 10.0713 97.7031 10.0859 97.8086 10.1035V12.2305C97.709 12.1953 97.5537 12.166 97.3428 12.1426C97.1318 12.1191 96.9297 12.1074 96.7363 12.1074C96.3086 12.1074 95.9277 12.1982 95.5938 12.3799C95.2598 12.5615 94.9961 12.8105 94.8027 13.127C94.6152 13.4434 94.5215 13.8125 94.5215 14.2344V20H92.21ZM101.896 20.1758C101.128 20.1758 100.437 19.9795 99.8213 19.5869C99.2119 19.1885 98.7314 18.6113 98.3799 17.8555C98.0283 17.0996 97.8525 16.1826 97.8525 15.1045C97.8525 14.0088 98.0312 13.0859 98.3887 12.3359C98.752 11.5859 99.2383 11.0176 99.8477 10.6309C100.457 10.2441 101.14 10.0508 101.896 10.0508C102.476 10.0508 102.95 10.1475 103.319 10.3408C103.688 10.5342 103.981 10.7686 104.198 11.0439C104.421 11.3135 104.591 11.5654 104.708 11.7998H104.805V6.9043H107.107V20H104.849V18.4443H104.708C104.585 18.6846 104.412 18.9395 104.189 19.209C103.967 19.4727 103.671 19.7012 103.302 19.8945C102.933 20.082 102.464 20.1758 101.896 20.1758ZM102.537 18.2773C103.029 18.2773 103.445 18.1455 103.785 17.8818C104.131 17.6123 104.395 17.2402 104.576 16.7656C104.758 16.2852 104.849 15.7285 104.849 15.0957C104.849 14.457 104.758 13.9033 104.576 13.4346C104.4 12.96 104.14 12.5938 103.794 12.3359C103.454 12.0781 103.035 11.9492 102.537 11.9492C102.027 11.9492 101.6 12.084 101.254 12.3535C100.908 12.623 100.647 12.9951 100.472 13.4697C100.302 13.9443 100.217 14.4863 100.217 15.0957C100.217 15.7051 100.305 16.25 100.48 16.7305C100.656 17.2109 100.914 17.5889 101.254 17.8643C101.6 18.1396 102.027 18.2773 102.537 18.2773ZM116.898 20.1934C115.938 20.1934 115.105 19.9824 114.402 19.5605C113.699 19.1387 113.154 18.5469 112.768 17.7852C112.387 17.0234 112.196 16.1387 112.196 15.1309C112.196 14.1172 112.387 13.2295 112.768 12.4678C113.154 11.7002 113.699 11.1055 114.402 10.6836C115.105 10.2617 115.938 10.0508 116.898 10.0508C117.859 10.0508 118.691 10.2617 119.395 10.6836C120.098 11.1055 120.643 11.7002 121.029 12.4678C121.416 13.2295 121.609 14.1172 121.609 15.1309C121.609 16.1387 121.416 17.0234 121.029 17.7852C120.643 18.5469 120.098 19.1387 119.395 19.5605C118.691 19.9824 117.859 20.1934 116.898 20.1934ZM116.898 18.3301C117.432 18.3301 117.871 18.1895 118.217 17.9082C118.562 17.6211 118.82 17.2344 118.99 16.748C119.166 16.2617 119.254 15.7227 119.254 15.1309C119.254 14.5273 119.166 13.9824 118.99 13.4961C118.82 13.0098 118.562 12.626 118.217 12.3447C117.871 12.0576 117.432 11.9141 116.898 11.9141C116.377 11.9141 115.94 12.0576 115.589 12.3447C115.237 12.626 114.974 13.0098 114.798 13.4961C114.628 13.9824 114.543 14.5273 114.543 15.1309C114.543 15.7227 114.628 16.2617 114.798 16.748C114.974 17.2344 115.237 17.6211 115.589 17.9082C115.94 18.1895 116.377 18.3301 116.898 18.3301ZM129.616 14.1289V16.0273H124.404V14.1289H129.616ZM125.107 10.1738V20H122.884V10.1738H125.107ZM131.146 10.1738V20H128.922V10.1738H131.146ZM132.174 20L132.165 18.0928H132.49C132.836 18.0928 133.108 17.9873 133.308 17.7764C133.513 17.5654 133.668 17.2021 133.773 16.6865C133.879 16.165 133.949 15.4473 133.984 14.5332L134.151 10.1738H141.314V20H139.073V12.0723H136.261L136.103 15.2539C136.062 16.0684 135.971 16.7744 135.83 17.3721C135.689 17.9697 135.487 18.4648 135.224 18.8574C134.966 19.2441 134.644 19.5312 134.257 19.7188C133.87 19.9062 133.413 20 132.886 20H132.174ZM145.858 20.2021C145.231 20.2021 144.669 20.0908 144.171 19.8682C143.673 19.6396 143.28 19.3057 142.993 18.8662C142.706 18.4268 142.562 17.8848 142.562 17.2402C142.562 16.6895 142.665 16.2324 142.87 15.8691C143.075 15.5059 143.354 15.2158 143.705 14.999C144.062 14.7822 144.464 14.6182 144.909 14.5068C145.354 14.3896 145.814 14.3076 146.289 14.2607C146.869 14.1963 147.338 14.1406 147.695 14.0938C148.053 14.0469 148.311 13.9707 148.469 13.8652C148.633 13.7598 148.715 13.5957 148.715 13.373V13.3291C148.715 12.8545 148.574 12.4854 148.293 12.2217C148.012 11.958 147.602 11.8262 147.062 11.8262C146.494 11.8262 146.043 11.9492 145.709 12.1953C145.381 12.4414 145.158 12.7314 145.041 13.0654L142.888 12.7578C143.058 12.1602 143.339 11.6621 143.731 11.2637C144.124 10.8594 144.602 10.5576 145.164 10.3584C145.732 10.1533 146.359 10.0508 147.045 10.0508C147.514 10.0508 147.982 10.1064 148.451 10.2178C148.92 10.3232 149.351 10.5049 149.743 10.7627C150.136 11.0205 150.449 11.3662 150.684 11.7998C150.918 12.2334 151.035 12.7754 151.035 13.4258V20H148.812V18.6465H148.741C148.601 18.916 148.401 19.1709 148.144 19.4111C147.892 19.6455 147.575 19.8359 147.194 19.9824C146.819 20.1289 146.374 20.2021 145.858 20.2021ZM146.447 18.4971C146.916 18.4971 147.32 18.4062 147.66 18.2246C148 18.0371 148.264 17.791 148.451 17.4863C148.639 17.1758 148.732 16.8389 148.732 16.4756V15.3242C148.656 15.3828 148.533 15.4385 148.363 15.4912C148.193 15.5381 148 15.582 147.783 15.623C147.566 15.6641 147.353 15.6992 147.142 15.7285C146.937 15.7578 146.758 15.7812 146.605 15.7988C146.26 15.8457 145.949 15.9248 145.674 16.0361C145.404 16.1416 145.19 16.2881 145.032 16.4756C144.874 16.6631 144.795 16.9062 144.795 17.2051C144.795 17.6328 144.95 17.9551 145.261 18.1719C145.571 18.3887 145.967 18.4971 146.447 18.4971ZM154.973 16.8623L158.91 10.1738H161.283V20H159.06V13.3027L155.131 20H152.749V10.1738H154.973V16.8623ZM157.003 9.04883C156.118 9.04883 155.397 8.81152 154.841 8.33691C154.29 7.8623 154.015 7.24121 154.015 6.47363H155.746C155.746 6.84277 155.86 7.1416 156.089 7.37012C156.317 7.59277 156.622 7.7041 157.003 7.7041C157.384 7.7041 157.688 7.59277 157.917 7.37012C158.146 7.1416 158.26 6.84277 158.26 6.47363H160C160 7.24121 159.722 7.8623 159.165 8.33691C158.614 8.81152 157.894 9.04883 157.003 9.04883ZM169.729 14.1289V16.0273H164.518V14.1289H169.729ZM165.221 10.1738V20H162.997V10.1738H165.221ZM171.259 10.1738V20H169.035V10.1738H171.259Z" fill="url(#paint1_linear_100_595)"/>
<defs>
<linearGradient id="paint0_linear_100_595" x1="4.125" y1="4.79163" x2="21.0342" y2="5.47221" gradientUnits="userSpaceOnUse">
<stop stop-color="#EBEBEB" stop-opacity="0.7"/>
<stop offset="1" stop-color="#EBEBEB"/>
</linearGradient>
<linearGradient id="paint1_linear_100_595" x1="34" y1="0" x2="172.174" y2="30.7141" gradientUnits="userSpaceOnUse">
<stop stop-color="#EBEBEB" stop-opacity="0.7"/>
<stop offset="1" stop-color="#EBEBEB"/>
</linearGradient>
</defs>
</svg>
